<?xml version="1.0" encoding="UTF-8" standalone="no"?>
<!-- Generator: Adobe Illustrator 18.0.0, SVG Export Plug-In . SVG Version: 6.00 Build 0)  -->

<svg
   xmlns:dc="http://purl.org/dc/elements/1.1/"
   xmlns:cc="http://creativecommons.org/ns#"
   xmlns:rdf="http://www.w3.org/1999/02/22-rdf-syntax-ns#"
   xmlns:svg="http://www.w3.org/2000/svg"
   xmlns="http://www.w3.org/2000/svg"
   xmlns:sodipodi="http://sodipodi.sourceforge.net/DTD/sodipodi-0.dtd"
   xmlns:inkscape="http://www.inkscape.org/namespaces/inkscape"
   version="1.1"
   id="Layer_1"
   x="0px"
   y="0px"
   viewBox="0 0 28.9 28.9"
   enable-background="new 0 0 792 612"
   xml:space="preserve"
   inkscape:version="0.48.5 r10040"
   width="100%"
   height="100%"
   sodipodi:docname="chart_travels.svg"><metadata
     id="metadata3364"><rdf:RDF><cc:Work
         rdf:about=""><dc:format>image/svg+xml</dc:format><dc:type
           rdf:resource="http://purl.org/dc/dcmitype/StillImage" /></cc:Work></rdf:RDF></metadata><defs
     id="defs3362" /><sodipodi:namedview
     pagecolor="#ffffff"
     bordercolor="#666666"
     borderopacity="1"
     objecttolerance="10"
     gridtolerance="10"
     guidetolerance="10"
     inkscape:pageopacity="0"
     inkscape:pageshadow="2"
     inkscape:window-width="640"
     inkscape:window-height="480"
     id="namedview3360"
     showgrid="false"
     fit-margin-top="0"
     fit-margin-left="0.1"
     fit-margin-right="0.1"
     fit-margin-bottom="0"
     inkscape:zoom="0.38562092"
     inkscape:cx="15.249999"
     inkscape:cy="13.4"
     inkscape:window-x="59"
     inkscape:window-y="0"
     inkscape:window-maximized="0"
     inkscape:current-layer="Layer_1" /><path
     d="m 2.6499994,15.3 c 0.3,0.3 1,0.5 2,0.5 l 6.0999996,0 7.9,7.9 c 0.1,0.1 0.2,0.2 0.4,0.2 0.1,0 0.3,-0.1 0.4,-0.2 l 0.7,-0.7 c 0.2,-0.2 0.2,-0.4 0.1,-0.7 l -4,-6.5 7.1,0 1.6,1.6 c 0.2,0.2 0.6,0.2 0.8,0 l 0.3,-0.3 c 0.1,-0.1 0.2,-0.3 0.2,-0.5 l -0.3,-2.2 1.5,-1.5 c 0.2,-0.2 0.2,-0.5 0.1,-0.7 l -0.3,-0.4 c -0.2,-0.2 -0.5,-0.3 -0.7,-0.2 l -0.2,0.1 0.1,-1 c 0,-0.1 0,-0.3 -0.1,-0.4 -0.1,-0.1 -0.2,-0.2 -0.4,-0.2 l -1,-0.1 c -0.2,0 -0.4,0.1 -0.5,0.3 l -1.3,2.4 -6.7,0 3.1,-5.8 c 0.1,-0.2 0.1,-0.5 -0.1,-0.6 l -0.8,-0.8 c -0.1,-0.1 -0.2,-0.2 -0.4,-0.2 -0.1,0 -0.3,0.1 -0.4,0.2 l -6.7,7.2 H 5.3499994 c -0.6,0 -1,0.3 -1.3,0.6 -0.5,0.2 -0.8,0.3 -1,0.6 -0.7,0.5 -0.8,1.1 -0.4,1.4 z"
     id="path3354"
     inkscape:connector-curvature="0"
     style="fill:#676767" /><g
     id="g3356"
     transform="translate(-380.75,-290.5)"><path
       d="m 405,295.1 c -2.7,-2.7 -6.3,-4.1 -9.8,-4.1 -3.6,0 -7.1,1.4 -9.8,4.1 -5.4,5.4 -5.4,14.2 0,19.7 2.7,2.7 6.3,4.1 9.8,4.1 3.6,0 7.1,-1.4 9.8,-4.1 5.4,-5.4 5.4,-14.2 0,-19.7 z"
       id="path3358"
       inkscape:connector-curvature="0"
       style="fill:none;stroke:#676767" /></g></svg>