<?xml version="1.0" encoding="UTF-8" standalone="no"?>
<!-- Generator: Adobe Illustrator 18.0.0, SVG Export Plug-In . SVG Version: 6.00 Build 0)  -->

<svg
   xmlns:dc="http://purl.org/dc/elements/1.1/"
   xmlns:cc="http://creativecommons.org/ns#"
   xmlns:rdf="http://www.w3.org/1999/02/22-rdf-syntax-ns#"
   xmlns:svg="http://www.w3.org/2000/svg"
   xmlns="http://www.w3.org/2000/svg"
   xmlns:sodipodi="http://sodipodi.sourceforge.net/DTD/sodipodi-0.dtd"
   xmlns:inkscape="http://www.inkscape.org/namespaces/inkscape"
   version="1.1"
   id="Layer_1"
   x="0px"
   y="0px"
   viewBox="0 0 28.9 28.9"
   enable-background="new 0 0 792 612"
   xml:space="preserve"
   inkscape:version="0.48.5 r10040"
   width="100%"
   height="100%"
   sodipodi:docname="chart_tbd.svg"><metadata
     id="metadata3293"><rdf:RDF><cc:Work
         rdf:about=""><dc:format>image/svg+xml</dc:format><dc:type
           rdf:resource="http://purl.org/dc/dcmitype/StillImage" /></cc:Work></rdf:RDF></metadata><defs
     id="defs3291" /><sodipodi:namedview
     pagecolor="#ffffff"
     bordercolor="#666666"
     borderopacity="1"
     objecttolerance="10"
     gridtolerance="10"
     guidetolerance="10"
     inkscape:pageopacity="0"
     inkscape:pageshadow="2"
     inkscape:window-width="640"
     inkscape:window-height="480"
     id="namedview3289"
     showgrid="false"
     fit-margin-top="0"
     fit-margin-left="0.1"
     fit-margin-right="0.1"
     fit-margin-bottom="0"
     inkscape:zoom="4"
     inkscape:cx="14.75"
     inkscape:cy="4.6196869"
     inkscape:window-x="59"
     inkscape:window-y="0"
     inkscape:window-maximized="0"
     inkscape:current-layer="Layer_1" /><path
     d="m 21.85,4.8000027 c 1.4,3 2.8,5.9000003 4.1,8.9000003 -8,0 -11.3,8.6 -19.8,9.2 -1.4,-3 -2.8,-5.9 -4.1,-8.9 7.9,0 11.8,-9.2000003 19.8,-9.2000003 z M 7.25,21.300003 c 2.3,-0.4 4.2,-1.5 6,-2.9 -1,-0.4 -1.8,-1.2 -2.3,-2.2 -0.5,-1.1 -0.6,-2.3 -0.4,-3.6 -1.8,1.3 -3.8,2.5 -6,2.9 0.9,1.9 1.8,3.8 2.7,5.8 z m 0.9,-3.6 c 0,-0.1 -0.1,-0.1 -0.1,-0.2 -0.3,0 -0.6,0 -0.9,0 0,0.2 0.1,0.3 0.2,0.5 0.3,-0.1 0.5,-0.2 0.8,-0.3 z m 0,-0.8 c -0.2,-0.2 -0.4,-0.3 -0.7,-0.5 -0.1,0.1 -0.2,0.2 -0.2,0.4 0.3,0.1 0.6,0.2 0.8,0.3 0.1,0 0.1,-0.1 0.1,-0.2 z m 0.4,1.2 c -0.1,0 -0.2,-0.1 -0.2,-0.1 -0.2,0.2 -0.4,0.4 -0.6,0.6 0.1,0.1 0.3,0.2 0.5,0.2 0.1,-0.3 0.2,-0.5 0.3,-0.7 z m 0,-2.3 c -0.2,0 -0.3,0.1 -0.5,0.1 0.1,0.2 0.1,0.2 0.2,0.4 -0.1,-0.2 -0.1,-0.2 -0.2,-0.4 0.1,0.3 0.2,0.5 0.4,0.8 0.1,-0.1 0.1,-0.1 0.2,-0.1 0,-0.2 -0.1,-0.5 -0.1,-0.8 z m 0.5,2.2 c -0.1,0 -0.1,0.1 -0.2,0.1 0,0.3 0.1,0.6 0.1,0.9 0.2,0 0.3,-0.1 0.5,-0.1 -0.2,-0.4 -0.3,-0.6 -0.4,-0.9 z m 0.6,-1.9 c -0.1,-0.1 -0.3,-0.2 -0.4,-0.2 -0.1,0.3 -0.2,0.5 -0.3,0.8 0.1,0 0.1,0.1 0.2,0.1 0.2,-0.2 0.4,-0.5 0.5,-0.7 z m 0.6,1.8 c -0.3,-0.1 -0.6,-0.2 -0.8,-0.3 0,0.1 -0.1,0.2 -0.1,0.2 0.2,0.2 0.5,0.3 0.7,0.5 0,-0.1 0.1,-0.3 0.2,-0.4 z m -0.1,-1.3 c 0,0 0,0 0,0 -0.3,0.2 -0.5,0.3 -0.8,0.4 0,0 0,0 0,0 0.1,0.1 0.1,0.1 0.1,0.2 0.3,-0.1 0.6,-0.1 0.8,-0.2 0,-0.1 0,-0.2 -0.1,-0.4 z M 20.65,6.5000027 c -2.3,0.4 -4.2,1.5 -6,2.9 1.1,0.4 1.8,1.3000003 2.3,2.2000003 0.5,1.1 0.6,2.3 0.4,3.6 1.8,-1.4 3.8,-2.5 6.1,-2.9 -1,-1.9 -1.8,-3.9000003 -2.8,-5.8000003 z m -2.7,3.2 c -0.2,0.1 -0.3,0.1 -0.4,0.2 0.3,0.7000003 0.6,1.3000003 0.9,2.0000003 0.2,-0.1 0.2,-0.2 0.4,-0.2 -0.3,-0.7 -0.6,-1.4 -0.9,-2.0000003 z m 0.9,-0.5 c -0.2,0.1 -0.2,0.1 -0.4,0.2 0.3,0.6000003 0.6,1.3000003 0.9,2.0000003 0.2,-0.1 0.2,-0.1 0.4,-0.2 -0.2,-0.7 -0.6,-1.4000003 -0.9,-2.0000003 z m 1,-0.4 c -0.2,0.1 -0.2,0.1 -0.4,0.2 0.3,0.6 0.6,1.3000003 0.9,1.9000003 0.2,-0.1 0.3,-0.1 0.4,-0.2 -0.3,-0.6 -0.6,-1.3000003 -0.9,-1.9000003 z"
     id="path3283"
     inkscape:connector-curvature="0"
     style="fill:#676767" /><g
     id="g3285"
     transform="translate(-381.25,-290.5)"><path
       d="m 405.5,295.1 c -2.7,-2.7 -6.3,-4.1 -9.8,-4.1 -3.6,0 -7.1,1.4 -9.8,4.1 -5.4,5.4 -5.4,14.2 0,19.7 2.7,2.7 6.3,4.1 9.8,4.1 3.6,0 7.1,-1.4 9.8,-4.1 5.4,-5.4 5.4,-14.2 0,-19.7 z"
       id="path3287"
       inkscape:connector-curvature="0"
       style="fill:none;stroke:#676767" /></g></svg>