<?xml version="1.0" encoding="UTF-8" standalone="no"?>
<!-- Generator: Adobe Illustrator 18.0.0, SVG Export Plug-In . SVG Version: 6.00 Build 0)  -->

<svg
   xmlns:dc="http://purl.org/dc/elements/1.1/"
   xmlns:cc="http://creativecommons.org/ns#"
   xmlns:rdf="http://www.w3.org/1999/02/22-rdf-syntax-ns#"
   xmlns:svg="http://www.w3.org/2000/svg"
   xmlns="http://www.w3.org/2000/svg"
   xmlns:sodipodi="http://sodipodi.sourceforge.net/DTD/sodipodi-0.dtd"
   xmlns:inkscape="http://www.inkscape.org/namespaces/inkscape"
   version="1.1"
   id="Layer_1"
   x="0px"
   y="0px"
   viewBox="0 0 28.9 28.9"
   enable-background="new 0 0 792 612"
   xml:space="preserve"
   inkscape:version="0.48.5 r10040"
   width="100%"
   height="100%"
   sodipodi:docname="chart_unknown.svg"><metadata
     id="metadata3430"><rdf:RDF><cc:Work
         rdf:about=""><dc:format>image/svg+xml</dc:format><dc:type
           rdf:resource="http://purl.org/dc/dcmitype/StillImage" /></cc:Work></rdf:RDF></metadata><defs
     id="defs3428" /><sodipodi:namedview
     pagecolor="#ffffff"
     bordercolor="#666666"
     borderopacity="1"
     objecttolerance="10"
     gridtolerance="10"
     guidetolerance="10"
     inkscape:pageopacity="0"
     inkscape:pageshadow="2"
     inkscape:window-width="640"
     inkscape:window-height="480"
     id="namedview3426"
     showgrid="false"
     fit-margin-top="0"
     fit-margin-left="0.1"
     fit-margin-right="0.1"
     fit-margin-bottom="0"
     inkscape:zoom="0.38562092"
     inkscape:cx="15.049999"
     inkscape:cy="13.4"
     inkscape:window-x="59"
     inkscape:window-y="0"
     inkscape:window-maximized="0"
     inkscape:current-layer="Layer_1" /><g
     id="g3416"
     transform="translate(-380.95,-290.5)"><path
       d="m 399.7,296.6 c -1,-0.7 -2.4,-1 -4,-1 -2.1,0 -3.7,0.5 -4.8,1.5 -1,0.9 -1.6,2.2 -1.8,3.7 l 4.2,0.5 c 0.1,-0.9 0.4,-1.5 0.7,-1.9 0.4,-0.4 0.9,-0.6 1.5,-0.6 0.6,0 1,0.1 1.3,0.4 0.3,0.3 0.4,0.7 0.4,1.2 0,0.5 -0.3,1 -1,1.6 -1.2,1 -2,1.7 -2.3,2.1 -0.3,0.4 -0.6,0.8 -0.7,1.2 -0.2,0.5 -0.2,1.1 -0.2,1.8 v 0.2 h 4.1 c 0,-0.6 0.1,-1 0.3,-1.4 0.2,-0.4 0.7,-0.9 1.6,-1.6 1.1,-0.9 1.9,-1.6 2.2,-2.2 0.3,-0.6 0.5,-1.2 0.5,-1.8 0,-1.6 -0.6,-2.8 -2,-3.7 z"
       id="path3418"
       inkscape:connector-curvature="0"
       style="fill:#676767" /><circle
       cx="395.20001"
       cy="311.10001"
       r="2.2"
       id="circle3420"
       sodipodi:cx="395.20001"
       sodipodi:cy="311.10001"
       sodipodi:rx="2.2"
       sodipodi:ry="2.2"
       style="fill:#676767"
       d="m 397.40001,311.10001 c 0,1.21502 -0.98497,2.2 -2.2,2.2 -1.21502,0 -2.2,-0.98498 -2.2,-2.2 0,-1.21503 0.98498,-2.2 2.2,-2.2 1.21503,0 2.2,0.98497 2.2,2.2 z" /></g><g
     id="g3422"
     transform="translate(-380.95,-290.5)"><path
       d="m 405.2,295.1 c -2.7,-2.7 -6.3,-4.1 -9.8,-4.1 -3.5,0 -7.1,1.4 -9.8,4.1 -5.4,5.4 -5.4,14.2 0,19.7 2.7,2.7 6.3,4.1 9.8,4.1 3.5,0 7.1,-1.4 9.8,-4.1 5.4,-5.4 5.4,-14.2 0,-19.7 z"
       id="path3424"
       inkscape:connector-curvature="0"
       style="fill:none;stroke:#676767" /></g></svg>