<?xml version="1.0" encoding="UTF-8" standalone="no"?>
<!-- Generator: Adobe Illustrator 18.0.0, SVG Export Plug-In . SVG Version: 6.00 Build 0)  -->

<svg
   xmlns:dc="http://purl.org/dc/elements/1.1/"
   xmlns:cc="http://creativecommons.org/ns#"
   xmlns:rdf="http://www.w3.org/1999/02/22-rdf-syntax-ns#"
   xmlns:svg="http://www.w3.org/2000/svg"
   xmlns="http://www.w3.org/2000/svg"
   xmlns:sodipodi="http://sodipodi.sourceforge.net/DTD/sodipodi-0.dtd"
   xmlns:inkscape="http://www.inkscape.org/namespaces/inkscape"
   version="1.1"
   id="Layer_1"
   x="0px"
   y="0px"
   viewBox="0 0 28.9 28.9"
   enable-background="new 0 0 792 612"
   xml:space="preserve"
   inkscape:version="0.48.5 r10040"
   width="100%"
   height="100%"
   sodipodi:docname="chart_printer_media.svg"><metadata
     id="metadata3157"><rdf:RDF><cc:Work
         rdf:about=""><dc:format>image/svg+xml</dc:format><dc:type
           rdf:resource="http://purl.org/dc/dcmitype/StillImage" /></cc:Work></rdf:RDF></metadata><defs
     id="defs3155" /><sodipodi:namedview
     pagecolor="#ffffff"
     bordercolor="#666666"
     borderopacity="1"
     objecttolerance="10"
     gridtolerance="10"
     guidetolerance="10"
     inkscape:pageopacity="0"
     inkscape:pageshadow="2"
     inkscape:window-width="640"
     inkscape:window-height="480"
     id="namedview3153"
     showgrid="false"
     fit-margin-top="0"
     fit-margin-left="0.1"
     fit-margin-right="0.1"
     fit-margin-bottom="0"
     inkscape:zoom="0.38562092"
     inkscape:cx="15.049999"
     inkscape:cy="13.4"
     inkscape:window-x="59"
     inkscape:window-y="0"
     inkscape:window-maximized="0"
     inkscape:current-layer="Layer_1" /><g
     id="g3147"
     transform="translate(-380.95,-290.5)"><path
       d="m 405.2,295.1 c -2.7,-2.7 -6.3,-4.1 -9.8,-4.1 -3.5,0 -7.1,1.4 -9.8,4.1 -5.4,5.4 -5.4,14.2 0,19.7 2.7,2.7 6.3,4.1 9.8,4.1 3.5,0 7.1,-1.4 9.8,-4.1 5.4,-5.4 5.4,-14.2 0,-19.7 z"
       id="path3149"
       inkscape:connector-curvature="0"
       style="fill:none;stroke:#676767" /></g><path
     d="m 23.749999,6.8 v 12.7 c 0,1.2 -1,2.2 -2.1,2.2 H 7.1499994 c -1.8,0 -2.8,-0.9 -2.8,-3.2 V 9.2 h 2.7 V 6.7 H 23.749999 z M 7.0499994,10.6 h -1.3 v 7.9 c 0,1.2 0.3,1.7 0.6,1.7 0.4,0 0.7,-0.6 0.7,-1.7 V 10.6 z M 22.349999,8.2 H 8.3499994 v 10.4 c 0,0.8 -0.2,1.4 -0.4,1.8 H 21.549999 c 0.5,0 0.8,-0.5 0.8,-0.9 V 8.2 z m -8.6,4.8 h -3.2 v -0.5 h 3.2 V 13 z m 0,1.4 h -3.2 v -0.5 h 3.2 v 0.5 z m 0,1.5 h -3.2 v -0.5 h 3.2 v 0.5 z m 0,1.4 h -3.2 v -0.5 h 3.2 v 0.5 z m 0,1.4 h -3.2 v -0.5 h 3.2 v 0.5 z m -2.7,-8.5 h 8.4 v 0.9 h -8.4 v -0.9 z m 4,2.3 h 5.4 v 5.1 h -5.4 v -5.1 z"
     id="path3151"
     inkscape:connector-curvature="0"
     style="fill:#676767" /></svg>