<?xml version="1.0" encoding="UTF-8" standalone="no"?>
<!-- Generator: Adobe Illustrator 18.0.0, SVG Export Plug-In . SVG Version: 6.00 Build 0)  -->

<svg
   xmlns:dc="http://purl.org/dc/elements/1.1/"
   xmlns:cc="http://creativecommons.org/ns#"
   xmlns:rdf="http://www.w3.org/1999/02/22-rdf-syntax-ns#"
   xmlns:svg="http://www.w3.org/2000/svg"
   xmlns="http://www.w3.org/2000/svg"
   xmlns:sodipodi="http://sodipodi.sourceforge.net/DTD/sodipodi-0.dtd"
   xmlns:inkscape="http://www.inkscape.org/namespaces/inkscape"
   version="1.1"
   id="Layer_1"
   x="0px"
   y="0px"
   viewBox="0 0 28.9 28.9"
   enable-background="new 0 0 792 612"
   xml:space="preserve"
   inkscape:version="0.48.5 r10040"
   width="100%"
   height="100%"
   sodipodi:docname="chart_broadcasting.svg"><metadata
     id="metadata3041"><rdf:RDF><cc:Work
         rdf:about=""><dc:format>image/svg+xml</dc:format><dc:type
           rdf:resource="http://purl.org/dc/dcmitype/StillImage" /></cc:Work></rdf:RDF></metadata><defs
     id="defs3039" /><sodipodi:namedview
     pagecolor="#ffffff"
     bordercolor="#666666"
     borderopacity="1"
     objecttolerance="10"
     gridtolerance="10"
     guidetolerance="10"
     inkscape:pageopacity="0"
     inkscape:pageshadow="2"
     inkscape:window-width="640"
     inkscape:window-height="480"
     id="namedview3037"
     showgrid="false"
     fit-margin-top="0"
     fit-margin-left="0.1"
     fit-margin-right="0.1"
     fit-margin-bottom="0"
     inkscape:zoom="1"
     inkscape:cx="14.749999"
     inkscape:cy="13.4"
     inkscape:window-x="59"
     inkscape:window-y="0"
     inkscape:window-maximized="0"
     inkscape:current-layer="Layer_1" /><g
     id="g3031"
     transform="translate(-381.25,-290.5)"><path
       d="m 405.5,295.1 c -2.7,-2.7 -6.3,-4.1 -9.8,-4.1 -3.6,0 -7.1,1.4 -9.8,4.1 -5.4,5.4 -5.4,14.2 0,19.7 2.7,2.7 6.3,4.1 9.8,4.1 3.6,0 7.1,-1.4 9.8,-4.1 5.4,-5.4 5.4,-14.2 0,-19.7 z"
       id="path3033"
       inkscape:connector-curvature="0"
       style="fill:none;stroke:#676767" /></g><path
     d="m 8.5499992,5.4 c -0.9,0.8 -1.3,2 -1.3,3.2 0,1.2 0.4,2.3 1.3,3.2 l -0.7,0.8 c -1.1,-1.1 -1.7,-2.6 -1.7,-4 0,-1.4 0.5,-2.8 1.7,-3.9 l 0.7,0.7 z M 20.449999,24.9 c -0.1,0 -0.2,0 -0.3,0 -0.3,0 -0.7,-0.2 -0.8,-0.6 l -0.3,-0.7 h -4.5 -4.5999998 l -0.3,0.7 c -0.1,0.4 -0.5,0.6 -0.8,0.6 -0.1,0 -0.2,0 -0.3,0 -0.5,-0.2 -0.7,-0.7 -0.5,-1.2 l 5.4999998,-14.2 0.8,-0.6 h 0.3 l 0.8,0.6 5.5,14.2 c 0.2,0.5 0,1 -0.5,1.2 z m -9.3,-18.1 c -0.5,0.5 -0.8,1.2 -0.8,1.9 0,0.6 0.2,1.3 0.7,1.8 l -0.7,0.7 C 9.6499992,10.5 9.2499992,9.6 9.2499992,8.7 c 0,-0.9 0.3,-1.8 1.0999998,-2.5 l 0.8,0.6 z m 2.5,16 -2.4,-2.4 -0.9,2.4 h 3.3 z m -2.1,-3.3 0.8,0.8 1.5,-1.5 -1.5,-1.5 -0.8,2.2 z m 1.3,-3.1 1.7,1.7 1.7,-1.7 h -3.4 z m 3.2,4.5 -1.5,-1.5 -1.5,1.5 1.5,1.5 1.5,-1.5 z m -2.9,-5.4 h 2.8 l -1.4,-3.6 -1.4,3.6 z m 0.2,-7.7 c 0,-0.6 0.5,-1.1 1.1,-1.1 0.6,0 1.1,0.5 1.1,1.1 0,0.6 -0.5,1.1 -1.1,1.1 -0.6,0.1 -1.1,-0.5 -1.1,-1.1 z m 3.2,9.5 -1.4,1.4 1.5,1.5 0.7,-0.7 -0.8,-2.2 z m 2.2,5.5 -0.9,-2.4 -2.4,2.4 h 3.3 z m -0.8,-12.3 c 0.5,-0.5 0.8,-1.2 0.8,-1.9 0,-0.6 -0.2,-1.3 -0.7,-1.8 l 0.7,-0.7 c 0.6,0.7 1.1,1.6 1.1,2.6 0,0.9 -0.3,1.8 -1.1,2.5 l -0.8,-0.7 z m 2.7,1.4 c 0.9,-0.8 1.3,-2 1.3,-3.2 0,-1.2 -0.4,-2.4 -1.3,-3.2 l 0.7,-0.7 c 1.1,1.1 1.7,2.6 1.7,4 0,1.4 -0.5,2.8 -1.7,3.9 l -0.7,-0.8 z"
     id="path3035"
     inkscape:connector-curvature="0"
     style="fill:#676767" /></svg>