<?xml version="1.0" encoding="UTF-8" standalone="no"?>
<!-- Generator: Adobe Illustrator 18.0.0, SVG Export Plug-In . SVG Version: 6.00 Build 0)  -->

<svg
   xmlns:dc="http://purl.org/dc/elements/1.1/"
   xmlns:cc="http://creativecommons.org/ns#"
   xmlns:rdf="http://www.w3.org/1999/02/22-rdf-syntax-ns#"
   xmlns:svg="http://www.w3.org/2000/svg"
   xmlns="http://www.w3.org/2000/svg"
   xmlns:sodipodi="http://sodipodi.sourceforge.net/DTD/sodipodi-0.dtd"
   xmlns:inkscape="http://www.inkscape.org/namespaces/inkscape"
   version="1.1"
   id="Layer_1"
   x="0px"
   y="0px"
   viewBox="0 0 28.9 28.9"
   enable-background="new 0 0 792 612"
   xml:space="preserve"
   inkscape:version="0.48.5 r10040"
   width="100%"
   height="100%"
   sodipodi:docname="chart_entertainment.svg"><metadata
     id="metadata3099"><rdf:RDF><cc:Work
         rdf:about=""><dc:format>image/svg+xml</dc:format><dc:type
           rdf:resource="http://purl.org/dc/dcmitype/StillImage" /></cc:Work></rdf:RDF></metadata><defs
     id="defs3097" /><sodipodi:namedview
     pagecolor="#ffffff"
     bordercolor="#666666"
     borderopacity="1"
     objecttolerance="10"
     gridtolerance="10"
     guidetolerance="10"
     inkscape:pageopacity="0"
     inkscape:pageshadow="2"
     inkscape:window-width="640"
     inkscape:window-height="480"
     id="namedview3095"
     showgrid="false"
     fit-margin-top="0"
     fit-margin-left="0.1"
     fit-margin-right="0.1"
     fit-margin-bottom="0"
     inkscape:zoom="0.38562092"
     inkscape:cx="15.249999"
     inkscape:cy="13.4"
     inkscape:window-x="59"
     inkscape:window-y="0"
     inkscape:window-maximized="0"
     inkscape:current-layer="Layer_1" /><path
     d="m 23.449999,17.2 c 0,4.9 -4,8.9 -8.9,8.9 -4.8999996,0 -8.8999996,-4 -8.8999996,-8.9 0,-3.7 2.2,-6.8 5.3999996,-8.2 L 8.8499994,4.1 c 0,-0.5 0.3,-0.7 0.8,-0.7 h 9.9999996 c 0.4,0 0.8,0.2 0.8,0.7 l -2.2,4.9 c 3,1.4 5.2,4.5 5.2,8.2 z m -5.5,-2.2 0.2,0.1 1.2,-2.5 -0.1,-0.1 c -0.2,0.1 -0.3,0.2 -0.4,0.2 -0.1,0 -0.2,0 -0.3,-0.1 -1.7,-0.6 -2.5,-1 -3.4,-1 v -0.5 c 0,-0.2 0.1,-0.4 0.5,-0.5 v -0.2 h -2.1 v 0.2 c 0.4,0.1 0.4,0.3 0.4,0.5 v 0.4 c -2.6,0.1 -4.1999996,1.4 -4.1999996,3.3 0,2 1.0999996,2.7 4.1999996,3 v 2.6 c -2.1,-0.2 -3.2,-1 -3.2,-1.7 l -0.2,-0.1 -1.0999996,2.6 0.2,0.1 c 0.2,-0.1 0.2,-0.1 0.3,-0.1 0,0 0.1999996,0 0.1999996,0.1 1.3,0.6 2.6,1 3.8,1.1 v 0.5 c 0,0.3 -0.1,0.4 -0.4,0.5 v 0.2 h 2.1 v -0.1 c -0.4,-0.1 -0.5,-0.2 -0.5,-0.5 v -0.5 c 2.6,-0.1 4.3,-1.5 4.3,-3.4 0,-1.9 -1.4,-2.9 -4.1,-3.1 h -0.3 v -2.4 c 0.6,0 1.3,0.2 1.9,0.5 0.8,0.3 1,0.5 1,0.9 z m -4.1,-1.6 v 2.3 c -1.4,-0.1 -2,-0.2 -2,-1.1 0,-0.2 0.1,-0.4 0.3,-0.6 0.3,-0.4 0.9,-0.5 1.7,-0.6 z m 1.2,4.7 c 1.6,0.1 2.1,0.2 2.1,1 0,0.8 -0.6,1.3 -2.1,1.5 v -2.5 z"
     id="path3089"
     inkscape:connector-curvature="0"
     style="fill:#676767" /><g
     id="g3091"
     transform="translate(-380.75,-290.5)"><path
       d="m 405,295.1 c -2.7,-2.7 -6.3,-4.1 -9.8,-4.1 -3.6,0 -7.1,1.4 -9.8,4.1 -5.4,5.4 -5.4,14.2 0,19.7 2.7,2.7 6.3,4.1 9.8,4.1 3.6,0 7.1,-1.4 9.8,-4.1 5.4,-5.4 5.4,-14.2 0,-19.7 z"
       id="path3093"
       inkscape:connector-curvature="0"
       style="fill:none;stroke:#676767" /></g></svg>