<?xml version="1.0" encoding="UTF-8" standalone="no"?>
<!-- Generator: Adobe Illustrator 18.0.0, SVG Export Plug-In . SVG Version: 6.00 Build 0)  -->

<svg
   xmlns:dc="http://purl.org/dc/elements/1.1/"
   xmlns:cc="http://creativecommons.org/ns#"
   xmlns:rdf="http://www.w3.org/1999/02/22-rdf-syntax-ns#"
   xmlns:svg="http://www.w3.org/2000/svg"
   xmlns="http://www.w3.org/2000/svg"
   xmlns:sodipodi="http://sodipodi.sourceforge.net/DTD/sodipodi-0.dtd"
   xmlns:inkscape="http://www.inkscape.org/namespaces/inkscape"
   version="1.1"
   id="Layer_1"
   x="0px"
   y="0px"
   viewBox="0 0 36.4793 36.4793"
   enable-background="new 0 0 612 792"
   xml:space="preserve"
   inkscape:version="0.48.5 r10040"
   width="100%"
   height="100%"
   sodipodi:docname="fwd_arrow.svg"><metadata
     id="metadata3087"><rdf:RDF><cc:Work
         rdf:about=""><dc:format>image/svg+xml</dc:format><dc:type
           rdf:resource="http://purl.org/dc/dcmitype/StillImage" /></cc:Work></rdf:RDF></metadata><defs
     id="defs3085" /><sodipodi:namedview
     pagecolor="#ffffff"
     bordercolor="#666666"
     borderopacity="1"
     objecttolerance="10"
     gridtolerance="10"
     guidetolerance="10"
     inkscape:pageopacity="0"
     inkscape:pageshadow="2"
     inkscape:window-width="640"
     inkscape:window-height="480"
     id="namedview3083"
     showgrid="false"
     fit-margin-top="0"
     fit-margin-left="0"
     fit-margin-right="0"
     fit-margin-bottom="0"
     inkscape:zoom="0.2979798"
     inkscape:cx="44.939662"
     inkscape:cy="-69.460362"
     inkscape:window-x="59"
     inkscape:window-y="0"
     inkscape:window-maximized="0"
     inkscape:current-layer="Layer_1" /><g
     id="g3077"
     transform="translate(-261.06034,-290.06034)"><circle
       stroke-miterlimit="10"
       cx="279.29999"
       cy="308.29999"
       r="17.5"
       id="circle3079"
       sodipodi:cx="279.29999"
       sodipodi:cy="308.29999"
       sodipodi:rx="17.5"
       sodipodi:ry="17.5"
       style="fill:none;stroke:#a4a4a4;stroke-width:1.47930002;stroke-miterlimit:10"
       d="m 296.79999,308.29999 c 0,9.66498 -7.83502,17.5 -17.5,17.5 -9.66499,0 -17.5,-7.83502 -17.5,-17.5 0,-9.66499 7.83501,-17.5 17.5,-17.5 9.66498,0 17.5,7.83501 17.5,17.5 z" /></g><polygon
     clip-rule="evenodd"
     points="282.3,314.2 279,317.5 283.6,317.5 292.9,308.3 292.9,308.3 292.9,308.3 289.6,304.9 289.6,304.9 283.6,299 279,299 282.3,302.3 282.3,302.3 286.6,306.6 266.5,306.6 266.5,310.2 266.5,310.2 286.3,310.2 282.3,314.2 "
     id="polygon3081"
     style="fill:#a5a4a4;fill-rule:evenodd"
     transform="translate(-261.06034,-290.06034)" /></svg>