<?xml version="1.0" encoding="UTF-8" standalone="no"?>
<!-- Generator: Adobe Illustrator 18.0.0, SVG Export Plug-In . SVG Version: 6.00 Build 0)  -->

<svg
   xmlns:dc="http://purl.org/dc/elements/1.1/"
   xmlns:cc="http://creativecommons.org/ns#"
   xmlns:rdf="http://www.w3.org/1999/02/22-rdf-syntax-ns#"
   xmlns:svg="http://www.w3.org/2000/svg"
   xmlns="http://www.w3.org/2000/svg"
   xmlns:sodipodi="http://sodipodi.sourceforge.net/DTD/sodipodi-0.dtd"
   xmlns:inkscape="http://www.inkscape.org/namespaces/inkscape"
   version="1.1"
   id="Layer_1"
   x="0px"
   y="0px"
   viewBox="0 0 13.6 21.525"
   enable-background="new 0 0 792 612"
   xml:space="preserve"
   inkscape:version="0.48.5 r10040"
   width="100%"
   height="100%"
   sodipodi:docname="indistrict_funding__gps.svg"><metadata
     id="metadata3033"><rdf:RDF><cc:Work
         rdf:about=""><dc:format>image/svg+xml</dc:format><dc:type
           rdf:resource="http://purl.org/dc/dcmitype/StillImage" /><dc:title></dc:title></cc:Work></rdf:RDF></metadata><defs
     id="defs3031" /><sodipodi:namedview
     pagecolor="#ffffff"
     bordercolor="#666666"
     borderopacity="1"
     objecttolerance="10"
     gridtolerance="10"
     guidetolerance="10"
     inkscape:pageopacity="0"
     inkscape:pageshadow="2"
     inkscape:window-width="640"
     inkscape:window-height="480"
     id="namedview3029"
     showgrid="false"
     fit-margin-top="0"
     fit-margin-left="0"
     fit-margin-right="0"
     fit-margin-bottom="0"
     inkscape:zoom="1.77"
     inkscape:cx="85.3"
     inkscape:cy="-6.875"
     inkscape:window-x="59"
     inkscape:window-y="0"
     inkscape:window-maximized="0"
     inkscape:current-layer="Layer_1" /><path
     d="M 10.2,13.8 C 7.4,17.9 7,21.3 7,21.3 c -0.1,0.3 -0.3,0.3 -0.4,0 0,0 -0.5,-3.4 -3.3,-7.5 C 1,10.6 0,9.3 0,6.7 0,3 3,0 6.8,0 c 3.7,0 6.8,3 6.8,6.7 -0.1,2.6 -2.1,5.2 -3.4,7.1 z M 9.4,6.8 C 9.4,5.4 8.3,4.2 6.8,4.2 5.4,4.2 4.3,5.3 4.3,6.8 c 0,1.5 1.2,2.7 2.5,2.7 1.4,0 2.6,-1.2 2.6,-2.7 z"
     id="path3027"
     inkscape:connector-curvature="0"
     style="fill:#64bcbb" /></svg>